solid Fan douche 11
facet normal 4.996003610813203e-16 1.0 -1.4611225298175638e-16
  outer loop
    vertex -371.2999999999999 55.226809854856995 155.50000000000014
    vertex -372.7999999999998 55.22680985485695 145.50000000000014
    vertex -372.79999999999984 55.226809854856974 155.50000000000014
  endloop
endfacet
facet normal 4.996003610813203e-16 1.0 -1.4611225298175638e-16
  outer loop
    vertex -372.7999999999998 55.22680985485695 145.50000000000014
    vertex -371.2999999999999 55.226809854856995 155.50000000000014
    vertex -371.2999999999998 55.226809854856974 145.50000000000014
  endloop
endfacet
facet normal -1.4611225298175633e-16 -1.461122529817563e-16 -1.0
  outer loop
    vertex -371.2999999999999 55.226809854856995 155.50000000000014
    vertex -372.79999999999984 76.22680985485692 155.50000000000014
    vertex -371.2999999999999 76.22680985485695 155.50000000000014
  endloop
endfacet
facet normal -1.4611225298175633e-16 -1.461122529817563e-16 -1.0
  outer loop
    vertex -372.79999999999984 76.22680985485692 155.50000000000014
    vertex -371.2999999999999 55.226809854856995 155.50000000000014
    vertex -372.79999999999984 55.226809854856974 155.50000000000014
  endloop
endfacet
facet normal -4.996003610813203e-16 -1.0 1.4611225298175638e-16
  outer loop
    vertex -371.2999999999998 32.07680985485694 131.00000000000014
    vertex -372.7999999999998 32.07680985485691 164.50000000000014
    vertex -372.79999999999984 32.076809854856926 131.00000000000014
  endloop
endfacet
facet normal -4.996003610813203e-16 -1.0 1.4611225298175638e-16
  outer loop
    vertex -372.7999999999998 32.07680985485691 164.50000000000014
    vertex -371.2999999999998 32.07680985485694 131.00000000000014
    vertex -371.2999999999998 32.07680985485691 164.50000000000014
  endloop
endfacet
facet normal -1.0 4.996003610813203e-16 1.4611225298175626e-16
  outer loop
    vertex -372.79999999999984 32.076809854856926 131.00000000000014
    vertex -372.7999999999998 55.22680985485695 145.50000000000014
    vertex -372.7999999999998 91.57680985485699 131.00000000000017
  endloop
endfacet
facet normal -1.0 4.996003610813203e-16 1.4611225298175626e-16
  outer loop
    vertex -372.7999999999998 55.22680985485695 145.50000000000014
    vertex -372.79999999999984 32.076809854856926 131.00000000000014
    vertex -372.7999999999998 32.07680985485691 164.50000000000014
  endloop
endfacet
facet normal -1.0 4.996003610813203e-16 1.4611225298175626e-16
  outer loop
    vertex -372.7999999999998 55.22680985485695 145.50000000000014
    vertex -372.7999999999998 32.07680985485691 164.50000000000014
    vertex -372.79999999999984 55.226809854856974 155.50000000000014
  endloop
endfacet
facet normal -1.0 4.996003610813203e-16 1.4611225298175626e-16
  outer loop
    vertex -372.79999999999984 55.226809854856974 155.50000000000014
    vertex -372.7999999999998 32.07680985485691 164.50000000000014
    vertex -372.79999999999984 76.22680985485692 155.50000000000014
  endloop
endfacet
facet normal -1.0 4.996003610813203e-16 1.4611225298175626e-16
  outer loop
    vertex -372.7999999999998 91.57680985485699 131.00000000000017
    vertex -372.7999999999998 76.22680985485692 145.50000000000014
    vertex -372.7999999999999 91.576809854857 164.50000000000017
  endloop
endfacet
facet normal -1.0 4.996003610813203e-16 1.4611225298175626e-16
  outer loop
    vertex -372.7999999999998 76.22680985485692 145.50000000000014
    vertex -372.7999999999998 91.57680985485699 131.00000000000017
    vertex -372.7999999999998 55.22680985485695 145.50000000000014
  endloop
endfacet
facet normal -1.0 4.996003610813203e-16 1.4611225298175626e-16
  outer loop
    vertex -372.7999999999999 91.576809854857 164.50000000000017
    vertex -372.7999999999998 76.22680985485692 145.50000000000014
    vertex -372.79999999999984 76.22680985485692 155.50000000000014
  endloop
endfacet
facet normal -1.0 4.996003610813203e-16 1.4611225298175626e-16
  outer loop
    vertex -372.7999999999999 91.576809854857 164.50000000000017
    vertex -372.79999999999984 76.22680985485692 155.50000000000014
    vertex -372.7999999999998 32.07680985485691 164.50000000000014
  endloop
endfacet
facet normal 1.0 -4.996003610813203e-16 -1.4611225298175626e-16
  outer loop
    vertex -371.2999999999999 91.576809854857 164.50000000000017
    vertex -371.2999999999998 76.22680985485695 145.50000000000014
    vertex -371.2999999999997 91.576809854857 131.00000000000017
  endloop
endfacet
facet normal 1.0 -4.996003610813203e-16 -1.4611225298175626e-16
  outer loop
    vertex -371.2999999999998 76.22680985485695 145.50000000000014
    vertex -371.2999999999999 91.576809854857 164.50000000000017
    vertex -371.2999999999999 76.22680985485695 155.50000000000014
  endloop
endfacet
facet normal 1.0 -4.996003610813203e-16 -1.4611225298175626e-16
  outer loop
    vertex -371.2999999999999 76.22680985485695 155.50000000000014
    vertex -371.2999999999999 91.576809854857 164.50000000000017
    vertex -371.2999999999999 55.226809854856995 155.50000000000014
  endloop
endfacet
facet normal 1.0 -4.996003610813203e-16 -1.4611225298175626e-16
  outer loop
    vertex -371.2999999999999 55.226809854856995 155.50000000000014
    vertex -371.2999999999999 91.576809854857 164.50000000000017
    vertex -371.2999999999998 32.07680985485691 164.50000000000014
  endloop
endfacet
facet normal 1.0 -4.996003610813203e-16 -1.4611225298175626e-16
  outer loop
    vertex -371.2999999999998 32.07680985485694 131.00000000000014
    vertex -371.2999999999998 55.226809854856974 145.50000000000014
    vertex -371.2999999999998 32.07680985485691 164.50000000000014
  endloop
endfacet
facet normal 1.0 -4.996003610813203e-16 -1.4611225298175626e-16
  outer loop
    vertex -371.2999999999998 55.226809854856974 145.50000000000014
    vertex -371.2999999999998 32.07680985485694 131.00000000000014
    vertex -371.2999999999997 91.576809854857 131.00000000000017
  endloop
endfacet
facet normal 1.0 -4.996003610813203e-16 -1.4611225298175626e-16
  outer loop
    vertex -371.2999999999998 55.226809854856974 145.50000000000014
    vertex -371.2999999999997 91.576809854857 131.00000000000017
    vertex -371.2999999999998 76.22680985485695 145.50000000000014
  endloop
endfacet
facet normal 1.0 -4.996003610813203e-16 -1.4611225298175626e-16
  outer loop
    vertex -371.2999999999998 32.07680985485691 164.50000000000014
    vertex -371.2999999999998 55.226809854856974 145.50000000000014
    vertex -371.2999999999999 55.226809854856995 155.50000000000014
  endloop
endfacet
facet normal -4.996003610813203e-16 -1.0 1.4611225298175638e-16
  outer loop
    vertex -372.7999999999998 76.22680985485692 145.50000000000014
    vertex -371.2999999999999 76.22680985485695 155.50000000000014
    vertex -372.79999999999984 76.22680985485692 155.50000000000014
  endloop
endfacet
facet normal -4.996003610813203e-16 -1.0 1.4611225298175638e-16
  outer loop
    vertex -371.2999999999999 76.22680985485695 155.50000000000014
    vertex -372.7999999999998 76.22680985485692 145.50000000000014
    vertex -371.2999999999998 76.22680985485695 145.50000000000014
  endloop
endfacet
facet normal 2.5713455544427193e-16 1.4611225298175626e-16 1.0
  outer loop
    vertex -372.7999999999999 91.576809854857 164.50000000000017
    vertex -371.2999999999998 32.07680985485691 164.50000000000014
    vertex -371.2999999999999 91.576809854857 164.50000000000017
  endloop
endfacet
facet normal 2.5713455544427193e-16 1.4611225298175626e-16 1.0
  outer loop
    vertex -371.2999999999998 32.07680985485691 164.50000000000014
    vertex -372.7999999999999 91.576809854857 164.50000000000017
    vertex -372.7999999999998 32.07680985485691 164.50000000000014
  endloop
endfacet
facet normal -2.5713455544427193e-16 -1.4611225298175626e-16 -1.0
  outer loop
    vertex -371.2999999999998 32.07680985485694 131.00000000000014
    vertex -372.7999999999998 91.57680985485699 131.00000000000017
    vertex -371.2999999999997 91.576809854857 131.00000000000017
  endloop
endfacet
facet normal -2.5713455544427193e-16 -1.4611225298175626e-16 -1.0
  outer loop
    vertex -372.7999999999998 91.57680985485699 131.00000000000017
    vertex -371.2999999999998 32.07680985485694 131.00000000000014
    vertex -372.79999999999984 32.076809854856926 131.00000000000014
  endloop
endfacet
facet normal 4.996003610813203e-16 1.0 -1.4611225298175638e-16
  outer loop
    vertex -371.2999999999999 91.576809854857 164.50000000000017
    vertex -372.7999999999998 91.57680985485699 131.00000000000017
    vertex -372.7999999999999 91.576809854857 164.50000000000017
  endloop
endfacet
facet normal 4.996003610813203e-16 1.0 -1.4611225298175638e-16
  outer loop
    vertex -372.7999999999998 91.57680985485699 131.00000000000017
    vertex -371.2999999999999 91.576809854857 164.50000000000017
    vertex -371.2999999999997 91.576809854857 131.00000000000017
  endloop
endfacet
facet normal 1.4611225298175633e-16 1.461122529817563e-16 1.0
  outer loop
    vertex -372.7999999999998 76.22680985485692 145.50000000000014
    vertex -371.2999999999998 55.226809854856974 145.50000000000014
    vertex -371.2999999999998 76.22680985485695 145.50000000000014
  endloop
endfacet
facet normal 1.4611225298175633e-16 1.461122529817563e-16 1.0
  outer loop
    vertex -371.2999999999998 55.226809854856974 145.50000000000014
    vertex -372.7999999999998 76.22680985485692 145.50000000000014
    vertex -372.7999999999998 55.22680985485695 145.50000000000014
  endloop
endfacet
endsolid Fan douche 11
