solid Fan douche 11
facet normal 4.996003610813203e-16 1.0 -1.4611225298175638e-16
  outer loop
    vertex -275.4999999999998 155.22680985485698 150.50000000000014
    vertex -276.9999999999998 155.22680985485698 142.50000000000014
    vertex -276.9999999999998 155.22680985485698 150.50000000000014
  endloop
endfacet
facet normal 4.996003610813203e-16 1.0 -1.4611225298175638e-16
  outer loop
    vertex -276.9999999999998 155.22680985485698 142.50000000000014
    vertex -275.4999999999998 155.22680985485698 150.50000000000014
    vertex -275.4999999999998 155.22680985485698 142.50000000000014
  endloop
endfacet
facet normal -1.4611225298175633e-16 -1.461122529817563e-16 -1.0
  outer loop
    vertex -275.4999999999998 155.22680985485698 150.50000000000014
    vertex -276.9999999999998 170.22680985485695 150.50000000000014
    vertex -275.4999999999998 170.22680985485695 150.50000000000014
  endloop
endfacet
facet normal -1.4611225298175633e-16 -1.461122529817563e-16 -1.0
  outer loop
    vertex -276.9999999999998 170.22680985485695 150.50000000000014
    vertex -275.4999999999998 155.22680985485698 150.50000000000014
    vertex -276.9999999999998 155.22680985485698 150.50000000000014
  endloop
endfacet
facet normal -4.996003610813203e-16 -1.0 1.4611225298175638e-16
  outer loop
    vertex -275.4999999999998 132.07680985485695 131.0000000000001
    vertex -276.9999999999998 132.07680985485695 164.5000000000001
    vertex -276.99999999999983 132.07680985485695 131.0000000000001
  endloop
endfacet
facet normal -4.996003610813203e-16 -1.0 1.4611225298175638e-16
  outer loop
    vertex -276.9999999999998 132.07680985485695 164.5000000000001
    vertex -275.4999999999998 132.07680985485695 131.0000000000001
    vertex -275.4999999999998 132.07680985485695 164.5000000000001
  endloop
endfacet
facet normal -1.0 4.996003610813203e-16 1.6715677897091968e-16
  outer loop
    vertex -276.99999999999983 132.07680985485695 131.0000000000001
    vertex -276.9999999999998 140.3377188324086 143.10047156989617
    vertex -276.9999999999998 191.576809854857 131.00000000000014
  endloop
endfacet
facet normal -1.0 4.996003610813203e-16 1.6715677897091968e-16
  outer loop
    vertex -276.9999999999998 140.3377188324086 143.10047156989617
    vertex -276.99999999999983 132.07680985485695 131.0000000000001
    vertex -276.9999999999998 139.99180217149618 143.30394920952165
  endloop
endfacet
facet normal -1.0 4.996003610813203e-16 1.6715677897091968e-16
  outer loop
    vertex -276.9999999999998 139.99180217149618 143.30394920952165
    vertex -276.99999999999983 132.07680985485695 131.0000000000001
    vertex -276.9999999999998 139.51934632921106 143.692930129602
  endloop
endfacet
facet normal -1.0 4.996003610813203e-16 1.6715677897091968e-16
  outer loop
    vertex -276.9999999999998 139.51934632921106 143.692930129602
    vertex -276.99999999999983 132.07680985485695 131.0000000000001
    vertex -276.9999999999998 139.1135572244836 144.15103042602234
  endloop
endfacet
facet normal -1.0 4.996003610813203e-16 1.6715677897091968e-16
  outer loop
    vertex -276.9999999999998 139.1135572244836 144.15103042602234
    vertex -276.99999999999983 132.07680985485695 131.0000000000001
    vertex -276.9999999999998 138.78442673180908 144.6669701491371
  endloop
endfacet
facet normal -1.0 4.996003610813203e-16 1.6715677897091968e-16
  outer loop
    vertex -276.9999999999998 138.78442673180908 144.6669701491371
    vertex -276.99999999999983 132.07680985485695 131.0000000000001
    vertex -276.9999999999998 138.54005913623854 145.2280451506574
  endloop
endfacet
facet normal -1.0 4.996003610813203e-16 1.6715677897091968e-16
  outer loop
    vertex -276.9999999999998 138.54005913623854 145.2280451506574
    vertex -276.99999999999983 132.07680985485695 131.0000000000001
    vertex -276.9999999999998 132.07680985485695 164.5000000000001
  endloop
endfacet
facet normal -1.0 4.996003610813203e-16 1.6715677897091968e-16
  outer loop
    vertex -276.9999999999998 191.576809854857 131.00000000000014
    vertex -276.9999999999998 140.3377188324086 143.10047156989617
    vertex -276.9999999999998 155.22680985485698 142.50000000000014
  endloop
endfacet
facet normal -1.0 4.996003610813203e-16 1.6715677897091968e-16
  outer loop
    vertex -276.9999999999998 138.54005913623854 145.2280451506574
    vertex -276.9999999999998 132.07680985485695 164.5000000000001
    vertex -276.9999999999998 138.38647157898455 145.8204399019446
  endloop
endfacet
facet normal -1.0 4.996003610813203e-16 1.6715677897091968e-16
  outer loop
    vertex -276.9999999999998 138.38647157898455 145.8204399019446
    vertex -276.9999999999998 132.07680985485695 164.5000000000001
    vertex -276.9999999999998 138.32744589543455 146.42956767817665
  endloop
endfacet
facet normal -1.0 4.996003610813203e-16 1.6715677897091968e-16
  outer loop
    vertex -276.9999999999998 138.32744589543455 146.42956767817665
    vertex -276.9999999999998 132.07680985485695 164.5000000000001
    vertex -276.9999999999998 138.36443549381252 147.04042973192344
  endloop
endfacet
facet normal -1.0 4.996003610813203e-16 1.6715677897091968e-16
  outer loop
    vertex -276.9999999999998 138.36443549381252 147.04042973192344
    vertex -276.9999999999998 132.07680985485695 164.5000000000001
    vertex -276.9999999999998 138.49652956744504 147.63798461208683
  endloop
endfacet
facet normal -1.0 4.996003610813203e-16 1.6715677897091968e-16
  outer loop
    vertex -276.9999999999998 138.49652956744504 147.63798461208683
    vertex -276.9999999999998 132.07680985485695 164.5000000000001
    vertex -276.9999999999998 138.72047552184412 148.20751853434624
  endloop
endfacet
facet normal -1.0 4.996003610813203e-16 1.6715677897091968e-16
  outer loop
    vertex -276.9999999999998 138.72047552184412 148.20751853434624
    vertex -276.9999999999998 132.07680985485695 164.5000000000001
    vertex -276.9999999999998 139.03075906437846 148.73500768336092
  endloop
endfacet
facet normal -1.0 4.996003610813203e-16 1.6715677897091968e-16
  outer loop
    vertex -276.9999999999998 139.03075906437846 148.73500768336092
    vertex -276.9999999999998 132.07680985485695 164.5000000000001
    vertex -276.9999999999998 139.41973998445883 149.20746352564606
  endloop
endfacet
facet normal -1.0 4.996003610813203e-16 1.6715677897091968e-16
  outer loop
    vertex -276.9999999999998 139.41973998445883 149.20746352564606
    vertex -276.9999999999998 132.07680985485695 164.5000000000001
    vertex -276.9999999999998 139.87784028087918 149.61325263037352
  endloop
endfacet
facet normal -1.0 4.996003610813203e-16 1.6715677897091968e-16
  outer loop
    vertex -276.9999999999998 139.87784028087918 149.61325263037352
    vertex -276.9999999999998 132.07680985485695 164.5000000000001
    vertex -276.9999999999998 140.32660166924896 149.8995284301041
  endloop
endfacet
facet normal -1.0 4.996003610813203e-16 1.6715677897091968e-16
  outer loop
    vertex -276.9999999999998 140.32660166924896 149.8995284301041
    vertex -276.9999999999998 132.07680985485695 164.5000000000001
    vertex -276.9999999999998 144.11590087730534 149.8995284301041
  endloop
endfacet
facet normal -1.0 4.996003610813203e-16 1.6715677897091968e-16
  outer loop
    vertex -276.9999999999998 144.11590087730534 149.8995284301041
    vertex -276.9999999999998 132.07680985485695 164.5000000000001
    vertex -276.9999999999998 155.22680985485698 150.50000000000014
  endloop
endfacet
facet normal -1.0 4.996003610813203e-16 1.6715677897091968e-16
  outer loop
    vertex -276.9999999999998 155.22680985485698 150.50000000000014
    vertex -276.9999999999998 132.07680985485695 164.5000000000001
    vertex -276.9999999999998 170.22680985485695 150.50000000000014
  endloop
endfacet
facet normal -1.0 4.996003610813203e-16 1.6715677897091968e-16
  outer loop
    vertex -276.9999999999998 191.576809854857 131.00000000000014
    vertex -276.9999999999998 170.22680985485695 142.50000000000014
    vertex -276.9999999999999 191.576809854857 164.5000000000001
  endloop
endfacet
facet normal -1.0 4.996003610813203e-16 1.6715677897091968e-16
  outer loop
    vertex -276.9999999999998 170.22680985485695 142.50000000000014
    vertex -276.9999999999998 191.576809854857 131.00000000000014
    vertex -276.9999999999998 155.22680985485698 142.50000000000014
  endloop
endfacet
facet normal -1.0 4.996003610813203e-16 1.6715677897091968e-16
  outer loop
    vertex -276.9999999999999 191.576809854857 164.5000000000001
    vertex -276.9999999999998 170.22680985485695 142.50000000000014
    vertex -276.9999999999998 170.22680985485695 150.50000000000014
  endloop
endfacet
facet normal -1.0 4.996003610813203e-16 1.6715677897091968e-16
  outer loop
    vertex -276.9999999999999 191.576809854857 164.5000000000001
    vertex -276.9999999999998 170.22680985485695 150.50000000000014
    vertex -276.9999999999998 132.07680985485695 164.5000000000001
  endloop
endfacet
facet normal -1.0 4.996003610813203e-16 1.6715677897091968e-16
  outer loop
    vertex -276.9999999999998 155.22680985485698 142.50000000000014
    vertex -276.9999999999998 144.57577942883478 143.38674736962676
    vertex -276.9999999999998 155.22680985485698 150.50000000000014
  endloop
endfacet
facet normal -1.0 4.996003610813203e-16 1.6715677897091968e-16
  outer loop
    vertex -276.9999999999998 144.57577942883478 143.38674736962676
    vertex -276.9999999999998 155.22680985485698 142.50000000000014
    vertex -276.9999999999998 144.12701804046498 143.10047156989617
  endloop
endfacet
facet normal -1.0 4.996003610813203e-16 1.6715677897091968e-16
  outer loop
    vertex -276.9999999999998 144.12701804046498 143.10047156989617
    vertex -276.9999999999998 155.22680985485698 142.50000000000014
    vertex -276.9999999999998 140.3377188324086 143.10047156989617
  endloop
endfacet
facet normal -1.0 4.996003610813203e-16 1.6715677897091968e-16
  outer loop
    vertex -276.9999999999998 155.22680985485698 150.50000000000014
    vertex -276.9999999999998 144.57577942883478 143.38674736962676
    vertex -276.9999999999998 145.0338797252551 143.79253647435422
  endloop
endfacet
facet normal -1.0 4.996003610813203e-16 1.6715677897091968e-16
  outer loop
    vertex -276.9999999999998 155.22680985485698 150.50000000000014
    vertex -276.9999999999998 145.0338797252551 143.79253647435422
    vertex -276.9999999999998 145.42286064533548 144.26499231663934
  endloop
endfacet
facet normal -1.0 4.996003610813203e-16 1.6715677897091968e-16
  outer loop
    vertex -276.9999999999998 155.22680985485698 150.50000000000014
    vertex -276.9999999999998 145.42286064533548 144.26499231663934
    vertex -276.9999999999998 145.7331441878698 144.79248146565405
  endloop
endfacet
facet normal -1.0 4.996003610813203e-16 1.6715677897091968e-16
  outer loop
    vertex -276.9999999999998 155.22680985485698 150.50000000000014
    vertex -276.9999999999998 145.7331441878698 144.79248146565405
    vertex -276.9999999999998 145.9570901422689 145.36201538791346
  endloop
endfacet
facet normal -1.0 4.996003610813203e-16 1.6715677897091968e-16
  outer loop
    vertex -276.9999999999998 155.22680985485698 150.50000000000014
    vertex -276.9999999999998 145.9570901422689 145.36201538791346
    vertex -276.9999999999998 146.0891842159014 145.95957026807685
  endloop
endfacet
facet normal -1.0 4.996003610813203e-16 1.6715677897091968e-16
  outer loop
    vertex -276.9999999999998 155.22680985485698 150.50000000000014
    vertex -276.9999999999998 146.0891842159014 145.95957026807685
    vertex -276.9999999999998 146.12617381427938 146.57043232182363
  endloop
endfacet
facet normal -1.0 4.996003610813203e-16 1.6715677897091968e-16
  outer loop
    vertex -276.9999999999998 155.22680985485698 150.50000000000014
    vertex -276.9999999999998 146.12617381427938 146.57043232182363
    vertex -276.9999999999998 146.06714813072938 147.17956009805565
  endloop
endfacet
facet normal -1.0 4.996003610813203e-16 1.6715677897091968e-16
  outer loop
    vertex -276.9999999999998 155.22680985485698 150.50000000000014
    vertex -276.9999999999998 146.06714813072938 147.17956009805565
    vertex -276.9999999999998 145.9135605734754 147.77195484934288
  endloop
endfacet
facet normal -1.0 4.996003610813203e-16 1.6715677897091968e-16
  outer loop
    vertex -276.9999999999998 155.22680985485698 150.50000000000014
    vertex -276.9999999999998 145.9135605734754 147.77195484934288
    vertex -276.9999999999998 145.66919297790488 148.33302985086317
  endloop
endfacet
facet normal -1.0 4.996003610813203e-16 1.6715677897091968e-16
  outer loop
    vertex -276.9999999999998 155.22680985485698 150.50000000000014
    vertex -276.9999999999998 145.66919297790488 148.33302985086317
    vertex -276.9999999999998 145.34006248523033 148.84896957397794
  endloop
endfacet
facet normal -1.0 4.996003610813203e-16 1.6715677897091968e-16
  outer loop
    vertex -276.9999999999998 155.22680985485698 150.50000000000014
    vertex -276.9999999999998 145.34006248523033 148.84896957397794
    vertex -276.9999999999998 144.9342733805029 149.30706987039827
  endloop
endfacet
facet normal -1.0 4.996003610813203e-16 1.6715677897091968e-16
  outer loop
    vertex -276.9999999999998 155.22680985485698 150.50000000000014
    vertex -276.9999999999998 144.9342733805029 149.30706987039827
    vertex -276.9999999999998 144.46181753821776 149.69605079047864
  endloop
endfacet
facet normal -1.0 4.996003610813203e-16 1.6715677897091968e-16
  outer loop
    vertex -276.9999999999998 155.22680985485698 150.50000000000014
    vertex -276.9999999999998 144.46181753821776 149.69605079047864
    vertex -276.9999999999998 144.11590087730534 149.8995284301041
  endloop
endfacet
facet normal -4.996003610813203e-16 -1.0 1.4611225298175638e-16
  outer loop
    vertex -275.4999999999998 170.22680985485695 142.50000000000014
    vertex -276.9999999999998 170.22680985485695 150.50000000000014
    vertex -276.9999999999998 170.22680985485695 142.50000000000014
  endloop
endfacet
facet normal -4.996003610813203e-16 -1.0 1.4611225298175638e-16
  outer loop
    vertex -276.9999999999998 170.22680985485695 150.50000000000014
    vertex -275.4999999999998 170.22680985485695 142.50000000000014
    vertex -275.4999999999998 170.22680985485695 150.50000000000014
  endloop
endfacet
facet normal 2.5713455544427193e-16 1.4611225298175626e-16 1.0
  outer loop
    vertex -276.9999999999998 132.07680985485695 164.5000000000001
    vertex -275.4999999999999 191.576809854857 164.5000000000001
    vertex -276.9999999999999 191.576809854857 164.5000000000001
  endloop
endfacet
facet normal 2.5713455544427193e-16 1.4611225298175626e-16 1.0
  outer loop
    vertex -275.4999999999999 191.576809854857 164.5000000000001
    vertex -276.9999999999998 132.07680985485695 164.5000000000001
    vertex -275.4999999999998 132.07680985485695 164.5000000000001
  endloop
endfacet
facet normal -2.5713455544427193e-16 -1.4611225298175626e-16 -1.0
  outer loop
    vertex -275.4999999999998 132.07680985485695 131.0000000000001
    vertex -276.9999999999998 191.576809854857 131.00000000000014
    vertex -275.4999999999997 191.576809854857 131.00000000000014
  endloop
endfacet
facet normal -2.5713455544427193e-16 -1.4611225298175626e-16 -1.0
  outer loop
    vertex -276.9999999999998 191.576809854857 131.00000000000014
    vertex -275.4999999999998 132.07680985485695 131.0000000000001
    vertex -276.99999999999983 132.07680985485695 131.0000000000001
  endloop
endfacet
facet normal 4.996003610813203e-16 1.0 -1.4611225298175638e-16
  outer loop
    vertex -275.4999999999999 191.576809854857 164.5000000000001
    vertex -276.9999999999998 191.576809854857 131.00000000000014
    vertex -276.9999999999999 191.576809854857 164.5000000000001
  endloop
endfacet
facet normal 4.996003610813203e-16 1.0 -1.4611225298175638e-16
  outer loop
    vertex -276.9999999999998 191.576809854857 131.00000000000014
    vertex -275.4999999999999 191.576809854857 164.5000000000001
    vertex -275.4999999999997 191.576809854857 131.00000000000014
  endloop
endfacet
facet normal 1.4611225298175633e-16 1.461122529817563e-16 1.0
  outer loop
    vertex -276.9999999999998 155.22680985485698 142.50000000000014
    vertex -275.4999999999998 170.22680985485695 142.50000000000014
    vertex -276.9999999999998 170.22680985485695 142.50000000000014
  endloop
endfacet
facet normal 1.4611225298175633e-16 1.461122529817563e-16 1.0
  outer loop
    vertex -275.4999999999998 170.22680985485695 142.50000000000014
    vertex -276.9999999999998 155.22680985485698 142.50000000000014
    vertex -275.4999999999998 155.22680985485698 142.50000000000014
  endloop
endfacet
facet normal 1.0 -1.7629042340567464e-31 1.346849663306458e-15
  outer loop
    vertex -275.4999999999998 155.22680985485698 142.50000000000014
    vertex -275.4999999999997 142.90636995291248 142.65966172412772
    vertex -275.4999999999997 142.29724217668047 142.6006360405777
  endloop
endfacet
facet normal 1.0 -1.7629042340567464e-31 1.346849663306458e-15
  outer loop
    vertex -275.4999999999997 142.90636995291248 142.65966172412772
    vertex -275.4999999999998 155.22680985485698 142.50000000000014
    vertex -275.4999999999997 143.49876470419971 142.8132492813817
  endloop
endfacet
facet normal 1.0 -1.7629042340567464e-31 1.346849663306458e-15
  outer loop
    vertex -275.4999999999997 143.49876470419971 142.8132492813817
    vertex -275.4999999999998 155.22680985485698 142.50000000000014
    vertex -275.4999999999997 144.05983970572 143.05761687695224
  endloop
endfacet
facet normal 1.0 -1.7629042340567464e-31 1.346849663306458e-15
  outer loop
    vertex -275.4999999999997 144.05983970572 143.05761687695224
    vertex -275.4999999999998 155.22680985485698 142.50000000000014
    vertex -275.4999999999997 144.12701804046498 143.10047156989617
  endloop
endfacet
facet normal 1.0 -1.7629042340567464e-31 1.346849663306458e-15
  outer loop
    vertex -275.4999999999997 144.12701804046498 143.10047156989617
    vertex -275.4999999999998 155.22680985485698 142.50000000000014
    vertex -275.4999999999997 144.57577942883478 143.38674736962676
  endloop
endfacet
facet normal 1.0 -1.7629042340567464e-31 1.346849663306458e-15
  outer loop
    vertex -275.4999999999997 144.57577942883478 143.38674736962676
    vertex -275.4999999999998 155.22680985485698 142.50000000000014
    vertex -275.4999999999998 155.22680985485698 150.50000000000014
  endloop
endfacet
facet normal 1.0 -1.7629042340567464e-31 1.346849663306458e-15
  outer loop
    vertex -275.4999999999997 144.57577942883478 143.38674736962676
    vertex -275.4999999999998 155.22680985485698 150.50000000000014
    vertex -275.4999999999997 145.0338797252551 143.79253647435422
  endloop
endfacet
facet normal 1.0 -1.7629042340567464e-31 1.346849663306458e-15
  outer loop
    vertex -275.4999999999997 145.0338797252551 143.79253647435422
    vertex -275.4999999999998 155.22680985485698 150.50000000000014
    vertex -275.4999999999997 145.42286064533548 144.26499231663934
  endloop
endfacet
facet normal 1.0 -1.7629042340567464e-31 1.346849663306458e-15
  outer loop
    vertex -275.4999999999997 145.42286064533548 144.26499231663934
    vertex -275.4999999999998 155.22680985485698 150.50000000000014
    vertex -275.4999999999997 145.7331441878698 144.79248146565405
  endloop
endfacet
facet normal 1.0 -1.7629042340567464e-31 1.346849663306458e-15
  outer loop
    vertex -275.4999999999997 145.7331441878698 144.79248146565405
    vertex -275.4999999999998 155.22680985485698 150.50000000000014
    vertex -275.4999999999997 145.9570901422689 145.36201538791346
  endloop
endfacet
facet normal 1.0 -1.7629042340567464e-31 1.346849663306458e-15
  outer loop
    vertex -275.4999999999997 145.9570901422689 145.36201538791346
    vertex -275.4999999999998 155.22680985485698 150.50000000000014
    vertex -275.4999999999997 146.0891842159014 145.95957026807685
  endloop
endfacet
facet normal 1.0 -1.7629042340567464e-31 1.346849663306458e-15
  outer loop
    vertex -275.4999999999997 146.0891842159014 145.95957026807685
    vertex -275.4999999999998 155.22680985485698 150.50000000000014
    vertex -275.4999999999997 146.12617381427938 146.57043232182363
  endloop
endfacet
facet normal 1.0 -1.7629042340567464e-31 1.346849663306458e-15
  outer loop
    vertex -275.4999999999997 146.12617381427938 146.57043232182363
    vertex -275.4999999999998 155.22680985485698 150.50000000000014
    vertex -275.4999999999997 146.06714813072938 147.17956009805565
  endloop
endfacet
facet normal 1.0 -1.7629042340567464e-31 1.346849663306458e-15
  outer loop
    vertex -275.4999999999997 146.06714813072938 147.17956009805565
    vertex -275.4999999999998 155.22680985485698 150.50000000000014
    vertex -275.4999999999997 145.9135605734754 147.77195484934288
  endloop
endfacet
facet normal 1.0 -1.7629042340567464e-31 1.346849663306458e-15
  outer loop
    vertex -275.4999999999997 145.9135605734754 147.77195484934288
    vertex -275.4999999999998 155.22680985485698 150.50000000000014
    vertex -275.4999999999997 145.66919297790488 148.33302985086317
  endloop
endfacet
facet normal 1.0 -1.7629042340567464e-31 1.346849663306458e-15
  outer loop
    vertex -275.4999999999997 145.66919297790488 148.33302985086317
    vertex -275.4999999999998 155.22680985485698 150.50000000000014
    vertex -275.4999999999997 145.34006248523033 148.84896957397794
  endloop
endfacet
facet normal 1.0 -1.7629042340567464e-31 1.346849663306458e-15
  outer loop
    vertex -275.4999999999997 145.34006248523033 148.84896957397794
    vertex -275.4999999999998 155.22680985485698 150.50000000000014
    vertex -275.4999999999997 144.9342733805029 149.30706987039827
  endloop
endfacet
facet normal 1.0 -1.7629042340567464e-31 1.346849663306458e-15
  outer loop
    vertex -275.4999999999997 144.9342733805029 149.30706987039827
    vertex -275.4999999999998 155.22680985485698 150.50000000000014
    vertex -275.4999999999997 144.46181753821776 149.69605079047864
  endloop
endfacet
facet normal 1.0 -1.7629042340567464e-31 1.346849663306458e-15
  outer loop
    vertex -275.4999999999997 144.46181753821776 149.69605079047864
    vertex -275.4999999999998 155.22680985485698 150.50000000000014
    vertex -275.4999999999997 144.11590087730534 149.8995284301041
  endloop
endfacet
facet normal 1.0 -1.7629042340567464e-31 1.346849663306458e-15
  outer loop
    vertex -275.4999999999997 144.11590087730534 149.8995284301041
    vertex -275.4999999999998 155.22680985485698 150.50000000000014
    vertex -275.4999999999997 143.93432838920307 150.00633433301297
  endloop
endfacet
facet normal 1.0 -1.7629042340567464e-31 1.346849663306458e-15
  outer loop
    vertex -275.4999999999997 143.93432838920307 150.00633433301297
    vertex -275.4999999999998 155.22680985485698 150.50000000000014
    vertex -275.4999999999997 143.36479446694366 150.23028028741206
  endloop
endfacet
facet normal 1.0 -1.7629042340567464e-31 1.346849663306458e-15
  outer loop
    vertex -275.4999999999997 143.36479446694366 150.23028028741206
    vertex -275.4999999999998 155.22680985485698 150.50000000000014
    vertex -275.4999999999997 142.76723958678025 150.36237436104457
  endloop
endfacet
facet normal 1.0 -1.7629042340567464e-31 1.346849663306458e-15
  outer loop
    vertex -275.4999999999997 142.76723958678025 150.36237436104457
    vertex -275.4999999999998 155.22680985485698 150.50000000000014
    vertex -275.4999999999997 142.1563775330335 150.39936395942254
  endloop
endfacet
facet normal 1.0 -1.7629042340567464e-31 1.346849663306458e-15
  outer loop
    vertex -275.4999999999999 191.576809854857 164.5000000000001
    vertex -275.4999999999998 170.22680985485695 142.50000000000014
    vertex -275.4999999999997 191.576809854857 131.00000000000014
  endloop
endfacet
facet normal 1.0 -1.7629042340567464e-31 1.346849663306458e-15
  outer loop
    vertex -275.4999999999998 170.22680985485695 142.50000000000014
    vertex -275.4999999999999 191.576809854857 164.5000000000001
    vertex -275.4999999999998 170.22680985485695 150.50000000000014
  endloop
endfacet
facet normal 1.0 -1.7629042340567464e-31 1.346849663306458e-15
  outer loop
    vertex -275.4999999999998 170.22680985485695 150.50000000000014
    vertex -275.4999999999999 191.576809854857 164.5000000000001
    vertex -275.4999999999998 155.22680985485698 150.50000000000014
  endloop
endfacet
facet normal 1.0 -1.7629042340567464e-31 1.346849663306458e-15
  outer loop
    vertex -275.4999999999998 132.07680985485695 131.0000000000001
    vertex -275.4999999999997 138.54005913623854 145.2280451506574
    vertex -275.4999999999998 132.07680985485695 164.5000000000001
  endloop
endfacet
facet normal 1.0 -1.7629042340567464e-31 1.346849663306458e-15
  outer loop
    vertex -275.4999999999997 138.54005913623854 145.2280451506574
    vertex -275.4999999999998 132.07680985485695 131.0000000000001
    vertex -275.4999999999997 138.78442673180908 144.6669701491371
  endloop
endfacet
facet normal 1.0 -1.7629042340567464e-31 1.346849663306458e-15
  outer loop
    vertex -275.4999999999997 138.78442673180908 144.6669701491371
    vertex -275.4999999999998 132.07680985485695 131.0000000000001
    vertex -275.4999999999997 139.1135572244836 144.15103042602234
  endloop
endfacet
facet normal 1.0 -1.7629042340567464e-31 1.346849663306458e-15
  outer loop
    vertex -275.4999999999997 139.1135572244836 144.15103042602234
    vertex -275.4999999999998 132.07680985485695 131.0000000000001
    vertex -275.4999999999997 139.51934632921106 143.692930129602
  endloop
endfacet
facet normal 1.0 -1.7629042340567464e-31 1.346849663306458e-15
  outer loop
    vertex -275.4999999999997 139.51934632921106 143.692930129602
    vertex -275.4999999999998 132.07680985485695 131.0000000000001
    vertex -275.4999999999997 139.99180217149618 143.30394920952165
  endloop
endfacet
facet normal 1.0 -1.7629042340567464e-31 1.346849663306458e-15
  outer loop
    vertex -275.4999999999997 139.99180217149618 143.30394920952165
    vertex -275.4999999999998 132.07680985485695 131.0000000000001
    vertex -275.4999999999997 140.3377188324086 143.10047156989617
  endloop
endfacet
facet normal 1.0 -1.7629042340567464e-31 1.346849663306458e-15
  outer loop
    vertex -275.4999999999997 140.3377188324086 143.10047156989617
    vertex -275.4999999999998 132.07680985485695 131.0000000000001
    vertex -275.4999999999997 140.51929132051086 142.9936656669873
  endloop
endfacet
facet normal 1.0 -1.7629042340567464e-31 1.346849663306458e-15
  outer loop
    vertex -275.4999999999997 140.51929132051086 142.9936656669873
    vertex -275.4999999999998 132.07680985485695 131.0000000000001
    vertex -275.4999999999997 141.0888252427703 142.7697197125882
  endloop
endfacet
facet normal 1.0 -1.7629042340567464e-31 1.346849663306458e-15
  outer loop
    vertex -275.4999999999997 141.0888252427703 142.7697197125882
    vertex -275.4999999999998 132.07680985485695 131.0000000000001
    vertex -275.4999999999997 191.576809854857 131.00000000000014
  endloop
endfacet
facet normal 1.0 -1.7629042340567464e-31 1.346849663306458e-15
  outer loop
    vertex -275.4999999999997 141.0888252427703 142.7697197125882
    vertex -275.4999999999997 191.576809854857 131.00000000000014
    vertex -275.4999999999997 141.68638012293368 142.63762563895568
  endloop
endfacet
facet normal 1.0 -1.7629042340567464e-31 1.346849663306458e-15
  outer loop
    vertex -275.4999999999997 141.68638012293368 142.63762563895568
    vertex -275.4999999999997 191.576809854857 131.00000000000014
    vertex -275.4999999999997 142.29724217668047 142.6006360405777
  endloop
endfacet
facet normal 1.0 -1.7629042340567464e-31 1.346849663306458e-15
  outer loop
    vertex -275.4999999999997 142.29724217668047 142.6006360405777
    vertex -275.4999999999997 191.576809854857 131.00000000000014
    vertex -275.4999999999998 155.22680985485698 142.50000000000014
  endloop
endfacet
facet normal 1.0 -1.7629042340567464e-31 1.346849663306458e-15
  outer loop
    vertex -275.4999999999998 155.22680985485698 142.50000000000014
    vertex -275.4999999999997 191.576809854857 131.00000000000014
    vertex -275.4999999999998 170.22680985485695 142.50000000000014
  endloop
endfacet
facet normal 1.0 -1.7629042340567464e-31 1.346849663306458e-15
  outer loop
    vertex -275.4999999999998 132.07680985485695 164.5000000000001
    vertex -275.4999999999997 138.54005913623854 145.2280451506574
    vertex -275.4999999999997 138.38647157898455 145.8204399019446
  endloop
endfacet
facet normal 1.0 -1.7629042340567464e-31 1.346849663306458e-15
  outer loop
    vertex -275.4999999999998 132.07680985485695 164.5000000000001
    vertex -275.4999999999997 138.38647157898455 145.8204399019446
    vertex -275.4999999999997 138.32744589543455 146.42956767817665
  endloop
endfacet
facet normal 1.0 -1.7629042340567464e-31 1.346849663306458e-15
  outer loop
    vertex -275.4999999999998 132.07680985485695 164.5000000000001
    vertex -275.4999999999997 138.32744589543455 146.42956767817665
    vertex -275.4999999999997 138.36443549381252 147.04042973192344
  endloop
endfacet
facet normal 1.0 -1.7629042340567464e-31 1.346849663306458e-15
  outer loop
    vertex -275.4999999999998 132.07680985485695 164.5000000000001
    vertex -275.4999999999997 138.36443549381252 147.04042973192344
    vertex -275.4999999999997 138.49652956744504 147.63798461208683
  endloop
endfacet
facet normal 1.0 -1.7629042340567464e-31 1.346849663306458e-15
  outer loop
    vertex -275.4999999999998 132.07680985485695 164.5000000000001
    vertex -275.4999999999997 138.49652956744504 147.63798461208683
    vertex -275.4999999999997 138.72047552184412 148.20751853434624
  endloop
endfacet
facet normal 1.0 -1.7629042340567464e-31 1.346849663306458e-15
  outer loop
    vertex -275.4999999999998 132.07680985485695 164.5000000000001
    vertex -275.4999999999997 138.72047552184412 148.20751853434624
    vertex -275.4999999999997 139.03075906437846 148.73500768336092
  endloop
endfacet
facet normal 1.0 -1.7629042340567464e-31 1.346849663306458e-15
  outer loop
    vertex -275.4999999999998 132.07680985485695 164.5000000000001
    vertex -275.4999999999997 139.03075906437846 148.73500768336092
    vertex -275.4999999999997 139.41973998445883 149.20746352564606
  endloop
endfacet
facet normal 1.0 -1.7629042340567464e-31 1.346849663306458e-15
  outer loop
    vertex -275.4999999999998 132.07680985485695 164.5000000000001
    vertex -275.4999999999997 139.41973998445883 149.20746352564606
    vertex -275.4999999999997 139.87784028087918 149.61325263037352
  endloop
endfacet
facet normal 1.0 -1.7629042340567464e-31 1.346849663306458e-15
  outer loop
    vertex -275.4999999999998 132.07680985485695 164.5000000000001
    vertex -275.4999999999997 139.87784028087918 149.61325263037352
    vertex -275.4999999999997 140.32660166924896 149.8995284301041
  endloop
endfacet
facet normal 1.0 -1.7629042340567464e-31 1.346849663306458e-15
  outer loop
    vertex -275.4999999999998 132.07680985485695 164.5000000000001
    vertex -275.4999999999997 140.32660166924896 149.8995284301041
    vertex -275.4999999999997 140.39378000399392 149.94238312304805
  endloop
endfacet
facet normal 1.0 -1.7629042340567464e-31 1.346849663306458e-15
  outer loop
    vertex -275.4999999999998 132.07680985485695 164.5000000000001
    vertex -275.4999999999997 140.39378000399392 149.94238312304805
    vertex -275.4999999999997 140.95485500551425 150.18675071861855
  endloop
endfacet
facet normal 1.0 -1.7629042340567464e-31 1.346849663306458e-15
  outer loop
    vertex -275.4999999999998 132.07680985485695 164.5000000000001
    vertex -275.4999999999997 140.95485500551425 150.18675071861855
    vertex -275.4999999999997 141.54724975680145 150.34033827587254
  endloop
endfacet
facet normal 1.0 -1.7629042340567464e-31 1.346849663306458e-15
  outer loop
    vertex -275.4999999999998 132.07680985485695 164.5000000000001
    vertex -275.4999999999997 141.54724975680145 150.34033827587254
    vertex -275.4999999999997 142.1563775330335 150.39936395942254
  endloop
endfacet
facet normal 1.0 -1.7629042340567464e-31 1.346849663306458e-15
  outer loop
    vertex -275.4999999999998 132.07680985485695 164.5000000000001
    vertex -275.4999999999997 142.1563775330335 150.39936395942254
    vertex -275.4999999999998 155.22680985485698 150.50000000000014
  endloop
endfacet
facet normal 1.0 -1.7629042340567464e-31 1.346849663306458e-15
  outer loop
    vertex -275.4999999999998 132.07680985485695 164.5000000000001
    vertex -275.4999999999998 155.22680985485698 150.50000000000014
    vertex -275.4999999999999 191.576809854857 164.5000000000001
  endloop
endfacet
facet normal 1.0 2.1348790471404758e-32 0.0
  outer loop
    vertex -275.4999999999997 142.90636995291248 142.65966172412772
    vertex -275.4999999999997 141.68638012293368 142.63762563895568
    vertex -275.4999999999997 142.29724217668047 142.6006360405777
  endloop
endfacet
facet normal 1.0 2.1348790471404758e-32 0.0
  outer loop
    vertex -275.4999999999997 141.68638012293368 142.63762563895568
    vertex -275.4999999999997 142.90636995291248 142.65966172412772
    vertex -275.4999999999997 141.0888252427703 142.7697197125882
  endloop
endfacet
facet normal 1.0 2.1348790471404758e-32 0.0
  outer loop
    vertex -275.4999999999997 141.0888252427703 142.7697197125882
    vertex -275.4999999999997 142.90636995291248 142.65966172412772
    vertex -275.4999999999997 143.49876470419971 142.8132492813817
  endloop
endfacet
facet normal 1.0 2.1348790471404758e-32 0.0
  outer loop
    vertex -275.4999999999997 141.0888252427703 142.7697197125882
    vertex -275.4999999999997 143.49876470419971 142.8132492813817
    vertex -275.4999999999997 140.51929132051086 142.9936656669873
  endloop
endfacet
facet normal 1.0 2.1348790471404758e-32 0.0
  outer loop
    vertex -275.4999999999997 140.51929132051086 142.9936656669873
    vertex -275.4999999999997 143.49876470419971 142.8132492813817
    vertex -275.4999999999997 144.05983970572 143.05761687695224
  endloop
endfacet
facet normal 1.0 2.1348790471404758e-32 0.0
  outer loop
    vertex -275.4999999999997 140.51929132051086 142.9936656669873
    vertex -275.4999999999997 144.05983970572 143.05761687695224
    vertex -275.4999999999997 140.3377188324086 143.10047156989617
  endloop
endfacet
facet normal 1.0 2.1348790471404758e-32 0.0
  outer loop
    vertex -275.4999999999997 140.3377188324086 143.10047156989617
    vertex -275.4999999999997 144.05983970572 143.05761687695224
    vertex -275.4999999999997 144.12701804046498 143.10047156989617
  endloop
endfacet
facet normal 1.0 2.1348790471404758e-32 0.0
  outer loop
    vertex -275.4999999999997 143.93432838920307 150.00633433301297
    vertex -275.4999999999997 140.32660166924896 149.8995284301041
    vertex -275.4999999999997 144.11590087730534 149.8995284301041
  endloop
endfacet
facet normal 1.0 2.1348790471404758e-32 0.0
  outer loop
    vertex -275.4999999999997 140.32660166924896 149.8995284301041
    vertex -275.4999999999997 143.93432838920307 150.00633433301297
    vertex -275.4999999999997 140.39378000399392 149.94238312304805
  endloop
endfacet
facet normal 1.0 2.1348790471404758e-32 0.0
  outer loop
    vertex -275.4999999999997 140.39378000399392 149.94238312304805
    vertex -275.4999999999997 143.93432838920307 150.00633433301297
    vertex -275.4999999999997 140.95485500551425 150.18675071861855
  endloop
endfacet
facet normal 1.0 2.1348790471404758e-32 0.0
  outer loop
    vertex -275.4999999999997 140.95485500551425 150.18675071861855
    vertex -275.4999999999997 143.93432838920307 150.00633433301297
    vertex -275.4999999999997 143.36479446694366 150.23028028741206
  endloop
endfacet
facet normal 1.0 2.1348790471404758e-32 0.0
  outer loop
    vertex -275.4999999999997 140.95485500551425 150.18675071861855
    vertex -275.4999999999997 143.36479446694366 150.23028028741206
    vertex -275.4999999999997 141.54724975680145 150.34033827587254
  endloop
endfacet
facet normal 1.0 2.1348790471404758e-32 0.0
  outer loop
    vertex -275.4999999999997 141.54724975680145 150.34033827587254
    vertex -275.4999999999997 143.36479446694366 150.23028028741206
    vertex -275.4999999999997 142.76723958678025 150.36237436104457
  endloop
endfacet
facet normal 1.0 2.1348790471404758e-32 0.0
  outer loop
    vertex -275.4999999999997 141.54724975680145 150.34033827587254
    vertex -275.4999999999997 142.76723958678025 150.36237436104457
    vertex -275.4999999999997 142.1563775330335 150.39936395942254
  endloop
endfacet
facet normal 0.0 0.0 -1.0
  outer loop
    vertex -275.4999999999997 140.32660166924896 149.8995284301041
    vertex -276.9999999999998 144.11590087730534 149.8995284301041
    vertex -275.4999999999997 144.11590087730534 149.8995284301041
  endloop
endfacet
facet normal 0.0 0.0 -1.0
  outer loop
    vertex -276.9999999999998 144.11590087730534 149.8995284301041
    vertex -275.4999999999997 140.32660166924896 149.8995284301041
    vertex -276.9999999999998 140.32660166924896 149.8995284301041
  endloop
endfacet
facet normal 0.0 0.5378116662970996 -0.8430650103015408
  outer loop
    vertex -275.4999999999997 139.87784028087918 149.61325263037352
    vertex -276.9999999999998 140.32660166924896 149.8995284301041
    vertex -275.4999999999997 140.32660166924896 149.8995284301041
  endloop
endfacet
facet normal 0.0 0.5378116662970996 -0.8430650103015408
  outer loop
    vertex -276.9999999999998 140.32660166924896 149.8995284301041
    vertex -275.4999999999997 139.87784028087918 149.61325263037352
    vertex -276.9999999999998 139.87784028087918 149.61325263037352
  endloop
endfacet
facet normal 2.465190328815662e-32 0.6630747361183787 -0.7485532007289412
  outer loop
    vertex -275.4999999999997 139.41973998445883 149.20746352564606
    vertex -276.9999999999998 139.87784028087918 149.61325263037352
    vertex -275.4999999999997 139.87784028087918 149.61325263037352
  endloop
endfacet
facet normal 2.465190328815662e-32 0.6630747361183787 -0.7485532007289412
  outer loop
    vertex -276.9999999999998 139.87784028087918 149.61325263037352
    vertex -275.4999999999997 139.41973998445883 149.20746352564606
    vertex -276.9999999999998 139.41973998445883 149.20746352564606
  endloop
endfacet
facet normal 9.860761315262648e-32 0.7720107053174896 -0.6356095270487946
  outer loop
    vertex -275.4999999999997 139.41973998445883 149.20746352564606
    vertex -276.9999999999998 139.03075906437846 148.73500768336092
    vertex -276.9999999999998 139.41973998445883 149.20746352564606
  endloop
endfacet
facet normal 9.860761315262648e-32 0.7720107053174896 -0.6356095270487946
  outer loop
    vertex -276.9999999999998 139.03075906437846 148.73500768336092
    vertex -275.4999999999997 139.41973998445883 149.20746352564606
    vertex -275.4999999999997 139.03075906437846 148.73500768336092
  endloop
endfacet
facet normal 6.162975822039155e-32 0.8619372087950642 -0.5070150373456136
  outer loop
    vertex -275.4999999999997 139.03075906437846 148.73500768336092
    vertex -276.9999999999998 138.72047552184412 148.20751853434624
    vertex -276.9999999999998 139.03075906437846 148.73500768336092
  endloop
endfacet
facet normal 6.162975822039155e-32 0.8619372087950642 -0.5070150373456136
  outer loop
    vertex -276.9999999999998 138.72047552184412 148.20751853434624
    vertex -275.4999999999997 139.03075906437846 148.73500768336092
    vertex -275.4999999999997 138.72047552184412 148.20751853434624
  endloop
endfacet
facet normal 9.24446373305873e-32 0.9306399575865132 -0.3659361547365508
  outer loop
    vertex -275.4999999999997 138.72047552184412 148.20751853434624
    vertex -276.9999999999998 138.49652956744504 147.63798461208683
    vertex -276.9999999999998 138.72047552184412 148.20751853434624
  endloop
endfacet
facet normal 9.24446373305873e-32 0.9306399575865132 -0.3659361547365508
  outer loop
    vertex -276.9999999999998 138.49652956744504 147.63798461208683
    vertex -275.4999999999997 138.72047552184412 148.20751853434624
    vertex -275.4999999999997 138.49652956744504 147.63798461208683
  endloop
endfacet
facet normal -2.465190328815662e-32 0.9764272620052421 -0.21584670952540902
  outer loop
    vertex -275.4999999999997 138.49652956744504 147.63798461208683
    vertex -276.9999999999998 138.36443549381252 147.04042973192344
    vertex -276.9999999999998 138.49652956744504 147.63798461208683
  endloop
endfacet
facet normal -2.465190328815662e-32 0.9764272620052421 -0.21584670952540902
  outer loop
    vertex -276.9999999999998 138.36443549381252 147.04042973192344
    vertex -275.4999999999997 138.49652956744504 147.63798461208683
    vertex -275.4999999999997 138.36443549381252 147.04042973192344
  endloop
endfacet
facet normal 2.9274135154685985e-32 0.9981716866571171 -0.06044240197151451
  outer loop
    vertex -275.4999999999997 138.36443549381252 147.04042973192344
    vertex -276.9999999999998 138.32744589543455 146.42956767817665
    vertex -276.9999999999998 138.36443549381252 147.04042973192344
  endloop
endfacet
facet normal 2.9274135154685985e-32 0.9981716866571171 -0.06044240197151451
  outer loop
    vertex -276.9999999999998 138.32744589543455 146.42956767817665
    vertex -275.4999999999997 138.36443549381252 147.04042973192344
    vertex -275.4999999999997 138.32744589543455 146.42956767817665
  endloop
endfacet
facet normal 2.465190328815662e-32 0.9953378116415837 0.09645019811562598
  outer loop
    vertex -275.4999999999997 138.32744589543455 146.42956767817665
    vertex -276.9999999999998 138.38647157898455 145.8204399019446
    vertex -276.9999999999998 138.32744589543455 146.42956767817665
  endloop
endfacet
facet normal 2.465190328815662e-32 0.9953378116415837 0.09645019811562598
  outer loop
    vertex -276.9999999999998 138.38647157898455 145.8204399019446
    vertex -275.4999999999997 138.32744589543455 146.42956767817665
    vertex -275.4999999999997 138.38647157898455 145.8204399019446
  endloop
endfacet
facet normal 6.779273404243071e-32 0.9679954163666339 0.2509678742253428
  outer loop
    vertex -275.4999999999997 138.38647157898455 145.8204399019446
    vertex -276.9999999999998 138.54005913623854 145.2280451506574
    vertex -276.9999999999998 138.38647157898455 145.8204399019446
  endloop
endfacet
facet normal 6.779273404243071e-32 0.9679954163666339 0.2509678742253428
  outer loop
    vertex -276.9999999999998 138.54005913623854 145.2280451506574
    vertex -275.4999999999997 138.38647157898455 145.8204399019446
    vertex -275.4999999999997 138.54005913623854 145.2280451506574
  endloop
endfacet
facet normal -3.697785493223492e-32 0.9168177613481325 0.39930588835703223
  outer loop
    vertex -275.4999999999997 138.54005913623854 145.2280451506574
    vertex -276.9999999999998 138.78442673180908 144.6669701491371
    vertex -276.9999999999998 138.54005913623854 145.2280451506574
  endloop
endfacet
facet normal -3.697785493223492e-32 0.9168177613481325 0.39930588835703223
  outer loop
    vertex -276.9999999999998 138.78442673180908 144.6669701491371
    vertex -275.4999999999997 138.54005913623854 145.2280451506574
    vertex -275.4999999999997 138.78442673180908 144.6669701491371
  endloop
endfacet
facet normal 3.697785493223492e-32 0.8430650103015452 0.5378116662970926
  outer loop
    vertex -275.4999999999997 138.78442673180908 144.6669701491371
    vertex -276.9999999999998 139.1135572244836 144.15103042602234
    vertex -276.9999999999998 138.78442673180908 144.6669701491371
  endloop
endfacet
facet normal 3.697785493223492e-32 0.8430650103015452 0.5378116662970926
  outer loop
    vertex -276.9999999999998 139.1135572244836 144.15103042602234
    vertex -275.4999999999997 138.78442673180908 144.6669701491371
    vertex -275.4999999999997 139.1135572244836 144.15103042602234
  endloop
endfacet
facet normal -2.465190328815662e-32 0.7485532007289412 0.6630747361183787
  outer loop
    vertex -275.4999999999997 139.1135572244836 144.15103042602234
    vertex -276.9999999999998 139.51934632921106 143.692930129602
    vertex -276.9999999999998 139.1135572244836 144.15103042602234
  endloop
endfacet
facet normal -2.465190328815662e-32 0.7485532007289412 0.6630747361183787
  outer loop
    vertex -276.9999999999998 139.51934632921106 143.692930129602
    vertex -275.4999999999997 139.1135572244836 144.15103042602234
    vertex -275.4999999999997 139.51934632921106 143.692930129602
  endloop
endfacet
facet normal 0.0 0.6356095270487946 0.7720107053174896
  outer loop
    vertex -276.9999999999998 139.51934632921106 143.692930129602
    vertex -275.4999999999997 139.99180217149618 143.30394920952165
    vertex -276.9999999999998 139.99180217149618 143.30394920952165
  endloop
endfacet
facet normal 0.0 0.6356095270487946 0.7720107053174896
  outer loop
    vertex -275.4999999999997 139.99180217149618 143.30394920952165
    vertex -276.9999999999998 139.51934632921106 143.692930129602
    vertex -275.4999999999997 139.51934632921106 143.692930129602
  endloop
endfacet
facet normal 2.465190328815662e-32 0.5070150373456159 0.861937208795063
  outer loop
    vertex -276.9999999999998 139.99180217149618 143.30394920952165
    vertex -275.4999999999997 140.3377188324086 143.10047156989617
    vertex -276.9999999999998 140.3377188324086 143.10047156989617
  endloop
endfacet
facet normal 2.465190328815662e-32 0.5070150373456159 0.861937208795063
  outer loop
    vertex -275.4999999999997 140.3377188324086 143.10047156989617
    vertex -276.9999999999998 139.99180217149618 143.30394920952165
    vertex -275.4999999999997 139.99180217149618 143.30394920952165
  endloop
endfacet
facet normal 0.0 0.0 1.0
  outer loop
    vertex -276.9999999999998 140.3377188324086 143.10047156989617
    vertex -275.4999999999997 144.12701804046498 143.10047156989617
    vertex -276.9999999999998 144.12701804046498 143.10047156989617
  endloop
endfacet
facet normal 0.0 0.0 1.0
  outer loop
    vertex -275.4999999999997 144.12701804046498 143.10047156989617
    vertex -276.9999999999998 140.3377188324086 143.10047156989617
    vertex -275.4999999999997 140.3377188324086 143.10047156989617
  endloop
endfacet
facet normal 0.0 -0.5378116662970996 0.8430650103015408
  outer loop
    vertex -276.9999999999998 144.12701804046498 143.10047156989617
    vertex -275.4999999999997 144.57577942883478 143.38674736962676
    vertex -276.9999999999998 144.57577942883478 143.38674736962676
  endloop
endfacet
facet normal 0.0 -0.5378116662970996 0.8430650103015408
  outer loop
    vertex -275.4999999999997 144.57577942883478 143.38674736962676
    vertex -276.9999999999998 144.12701804046498 143.10047156989617
    vertex -275.4999999999997 144.12701804046498 143.10047156989617
  endloop
endfacet
facet normal -2.465190328815662e-32 -0.6630747361183787 0.7485532007289412
  outer loop
    vertex -276.9999999999998 144.57577942883478 143.38674736962676
    vertex -275.4999999999997 145.0338797252551 143.79253647435422
    vertex -276.9999999999998 145.0338797252551 143.79253647435422
  endloop
endfacet
facet normal -2.465190328815662e-32 -0.6630747361183787 0.7485532007289412
  outer loop
    vertex -275.4999999999997 145.0338797252551 143.79253647435422
    vertex -276.9999999999998 144.57577942883478 143.38674736962676
    vertex -275.4999999999997 144.57577942883478 143.38674736962676
  endloop
endfacet
facet normal -9.860761315262648e-32 -0.7720107053174896 0.6356095270487946
  outer loop
    vertex -275.4999999999997 145.0338797252551 143.79253647435422
    vertex -276.9999999999998 145.42286064533548 144.26499231663934
    vertex -276.9999999999998 145.0338797252551 143.79253647435422
  endloop
endfacet
facet normal -9.860761315262648e-32 -0.7720107053174896 0.6356095270487946
  outer loop
    vertex -276.9999999999998 145.42286064533548 144.26499231663934
    vertex -275.4999999999997 145.0338797252551 143.79253647435422
    vertex -275.4999999999997 145.42286064533548 144.26499231663934
  endloop
endfacet
facet normal -6.162975822039155e-32 -0.8619372087950642 0.5070150373456136
  outer loop
    vertex -275.4999999999997 145.42286064533548 144.26499231663934
    vertex -276.9999999999998 145.7331441878698 144.79248146565405
    vertex -276.9999999999998 145.42286064533548 144.26499231663934
  endloop
endfacet
facet normal -6.162975822039155e-32 -0.8619372087950642 0.5070150373456136
  outer loop
    vertex -276.9999999999998 145.7331441878698 144.79248146565405
    vertex -275.4999999999997 145.42286064533548 144.26499231663934
    vertex -275.4999999999997 145.7331441878698 144.79248146565405
  endloop
endfacet
facet normal -9.24446373305873e-32 -0.9306399575865132 0.3659361547365508
  outer loop
    vertex -275.4999999999997 145.7331441878698 144.79248146565405
    vertex -276.9999999999998 145.9570901422689 145.36201538791346
    vertex -276.9999999999998 145.7331441878698 144.79248146565405
  endloop
endfacet
facet normal -9.24446373305873e-32 -0.9306399575865132 0.3659361547365508
  outer loop
    vertex -276.9999999999998 145.9570901422689 145.36201538791346
    vertex -275.4999999999997 145.7331441878698 144.79248146565405
    vertex -275.4999999999997 145.9570901422689 145.36201538791346
  endloop
endfacet
facet normal 2.465190328815662e-32 -0.9764272620052421 0.21584670952540902
  outer loop
    vertex -275.4999999999997 145.9570901422689 145.36201538791346
    vertex -276.9999999999998 146.0891842159014 145.95957026807685
    vertex -276.9999999999998 145.9570901422689 145.36201538791346
  endloop
endfacet
facet normal 2.465190328815662e-32 -0.9764272620052421 0.21584670952540902
  outer loop
    vertex -276.9999999999998 146.0891842159014 145.95957026807685
    vertex -275.4999999999997 145.9570901422689 145.36201538791346
    vertex -275.4999999999997 146.0891842159014 145.95957026807685
  endloop
endfacet
facet normal -2.9274135154685985e-32 -0.9981716866571171 0.06044240197151451
  outer loop
    vertex -275.4999999999997 146.0891842159014 145.95957026807685
    vertex -276.9999999999998 146.12617381427938 146.57043232182363
    vertex -276.9999999999998 146.0891842159014 145.95957026807685
  endloop
endfacet
facet normal -2.9274135154685985e-32 -0.9981716866571171 0.06044240197151451
  outer loop
    vertex -276.9999999999998 146.12617381427938 146.57043232182363
    vertex -275.4999999999997 146.0891842159014 145.95957026807685
    vertex -275.4999999999997 146.12617381427938 146.57043232182363
  endloop
endfacet
facet normal -2.465190328815662e-32 -0.9953378116415837 -0.09645019811562598
  outer loop
    vertex -275.4999999999997 146.12617381427938 146.57043232182363
    vertex -276.9999999999998 146.06714813072938 147.17956009805565
    vertex -276.9999999999998 146.12617381427938 146.57043232182363
  endloop
endfacet
facet normal -2.465190328815662e-32 -0.9953378116415837 -0.09645019811562598
  outer loop
    vertex -276.9999999999998 146.06714813072938 147.17956009805565
    vertex -275.4999999999997 146.12617381427938 146.57043232182363
    vertex -275.4999999999997 146.06714813072938 147.17956009805565
  endloop
endfacet
facet normal -6.779273404243071e-32 -0.9679954163666339 -0.2509678742253428
  outer loop
    vertex -275.4999999999997 146.06714813072938 147.17956009805565
    vertex -276.9999999999998 145.9135605734754 147.77195484934288
    vertex -276.9999999999998 146.06714813072938 147.17956009805565
  endloop
endfacet
facet normal -6.779273404243071e-32 -0.9679954163666339 -0.2509678742253428
  outer loop
    vertex -276.9999999999998 145.9135605734754 147.77195484934288
    vertex -275.4999999999997 146.06714813072938 147.17956009805565
    vertex -275.4999999999997 145.9135605734754 147.77195484934288
  endloop
endfacet
facet normal 3.697785493223492e-32 -0.9168177613481325 -0.39930588835703223
  outer loop
    vertex -275.4999999999997 145.9135605734754 147.77195484934288
    vertex -276.9999999999998 145.66919297790488 148.33302985086317
    vertex -276.9999999999998 145.9135605734754 147.77195484934288
  endloop
endfacet
facet normal 3.697785493223492e-32 -0.9168177613481325 -0.39930588835703223
  outer loop
    vertex -276.9999999999998 145.66919297790488 148.33302985086317
    vertex -275.4999999999997 145.9135605734754 147.77195484934288
    vertex -275.4999999999997 145.66919297790488 148.33302985086317
  endloop
endfacet
facet normal -3.697785493223492e-32 -0.8430650103015452 -0.5378116662970926
  outer loop
    vertex -275.4999999999997 145.66919297790488 148.33302985086317
    vertex -276.9999999999998 145.34006248523033 148.84896957397794
    vertex -276.9999999999998 145.66919297790488 148.33302985086317
  endloop
endfacet
facet normal -3.697785493223492e-32 -0.8430650103015452 -0.5378116662970926
  outer loop
    vertex -276.9999999999998 145.34006248523033 148.84896957397794
    vertex -275.4999999999997 145.66919297790488 148.33302985086317
    vertex -275.4999999999997 145.34006248523033 148.84896957397794
  endloop
endfacet
facet normal 2.465190328815662e-32 -0.7485532007289412 -0.6630747361183787
  outer loop
    vertex -275.4999999999997 145.34006248523033 148.84896957397794
    vertex -276.9999999999998 144.9342733805029 149.30706987039827
    vertex -276.9999999999998 145.34006248523033 148.84896957397794
  endloop
endfacet
facet normal 2.465190328815662e-32 -0.7485532007289412 -0.6630747361183787
  outer loop
    vertex -276.9999999999998 144.9342733805029 149.30706987039827
    vertex -275.4999999999997 145.34006248523033 148.84896957397794
    vertex -275.4999999999997 144.9342733805029 149.30706987039827
  endloop
endfacet
facet normal 0.0 -0.6356095270487946 -0.7720107053174896
  outer loop
    vertex -275.4999999999997 144.46181753821776 149.69605079047864
    vertex -276.9999999999998 144.9342733805029 149.30706987039827
    vertex -275.4999999999997 144.9342733805029 149.30706987039827
  endloop
endfacet
facet normal 0.0 -0.6356095270487946 -0.7720107053174896
  outer loop
    vertex -276.9999999999998 144.9342733805029 149.30706987039827
    vertex -275.4999999999997 144.46181753821776 149.69605079047864
    vertex -276.9999999999998 144.46181753821776 149.69605079047864
  endloop
endfacet
facet normal -2.465190328815662e-32 -0.5070150373456159 -0.861937208795063
  outer loop
    vertex -275.4999999999997 144.11590087730534 149.8995284301041
    vertex -276.9999999999998 144.46181753821776 149.69605079047864
    vertex -275.4999999999997 144.46181753821776 149.69605079047864
  endloop
endfacet
facet normal -2.465190328815662e-32 -0.5070150373456159 -0.861937208795063
  outer loop
    vertex -276.9999999999998 144.46181753821776 149.69605079047864
    vertex -275.4999999999997 144.11590087730534 149.8995284301041
    vertex -276.9999999999998 144.11590087730534 149.8995284301041
  endloop
endfacet
endsolid Fan douche 11
